<?xml version="1.0" encoding="utf-8"?>
<svg viewBox="0 0 250 125" xmlns="http://www.w3.org/2000/svg">
  <defs/>
  <g transform="matrix(1, 0, 0, 1, -0.5562169551849347, 21.66077423095704)">
    <path d="M 35.06 66.92 Q 35.46 65.34 36.55 64.41 Q 37.65 63.47 39.01 62.83 Q 40.37 62.19 41.83 61.74 Q 43.29 61.29 44.47 60.77 Q 45.65 60.24 47.19 58.74 Q 48.73 57.24 50.3 55.44 Q 51.87 53.64 53.4 51.88 Q 54.93 50.12 56.09 49.07 Q 56.76 48.47 57.82 47.53 Q 58.88 46.59 59.9 45.66 Q 60.92 44.72 61.66 44.01 Q 62.4 43.29 62.5 43.22 Q 62.59 43.14 62.82 42.24 Q 63.04 41.34 63.15 40.89 Q 63.3 40.29 63.04 38.49 Q 62.78 36.69 62.31 34.37 Q 61.83 32.04 61.19 29.53 Q 60.54 27.02 59.98 24.88 Q 59.43 22.74 59.02 21.36 Q 58.62 19.97 58.55 19.97 L 50.75 19.97 Q 49.47 19.97 49.35 18.96 Q 49.23 17.94 49.45 17.04 Q 49.86 15.39 51.61 14.68 Q 53.37 13.97 55.49 13.86 Q 57.62 13.74 59.72 13.89 Q 61.82 14.04 62.95 14.04 Q 63.25 14.04 63.92 14.04 Q 64.6 14.04 65.38 14.08 Q 66.15 14.12 66.83 14.12 Q 67.5 14.12 67.73 14.12 Q 67.86 14.19 68.09 14.46 Q 68.33 14.72 68.59 15.02 Q 68.85 15.32 69.04 15.62 Q 69.23 15.92 69.29 15.99 L 69.23 16.22 Q 69.19 16.37 69.21 16.44 Q 69.23 16.52 69.21 16.59 Q 69.03 17.34 68.42 17.83 Q 67.81 18.32 67.09 18.77 Q 66.38 19.22 65.75 19.82 Q 65.11 20.42 64.88 21.32 Q 64.6 22.44 64.49 24.54 Q 64.38 26.64 64.66 28.67 Q 64.95 30.69 65.66 32.19 Q 66.37 33.69 67.72 33.69 Q 68.7 33.69 69.67 32.94 Q 70.65 32.19 71.46 31.18 Q 72.28 30.17 72.93 29.19 Q 73.59 28.22 74 27.77 Q 74.41 27.32 75.33 26.34 Q 76.25 25.37 77.31 24.28 Q 78.37 23.19 79.31 22.26 Q 80.26 21.32 80.65 20.94 Q 80.46 19.59 79.51 19.37 Q 78.55 19.14 77.61 18.99 Q 76.68 18.84 76.09 18.32 Q 75.51 17.79 75.96 15.99 Q 76.28 14.72 76.75 13.89 Q 77.22 13.07 78.64 13.07 Q 78.79 13.07 79.16 13.11 Q 79.52 13.14 79.6 13.14 Q 79.8 13.22 80.44 13.52 Q 81.08 13.82 81.82 14.16 Q 82.56 14.49 83.2 14.79 Q 83.84 15.09 83.97 15.17 L 84.49 15.17 Q 86.44 15.17 88.35 14.61 Q 90.25 14.04 92.12 14.04 Q 93.77 14.04 94.34 14.46 Q 94.92 14.87 94.49 16.59 Q 94.04 18.39 92.6 19.03 Q 91.17 19.67 89.35 20.04 Q 87.53 20.42 85.54 20.91 Q 83.54 21.39 82.06 22.82 Q 80.84 24.39 78.95 26.72 Q 77.06 29.04 75.14 31.63 Q 73.22 34.22 71.66 36.84 Q 70.11 39.47 69.55 41.72 Q 69.06 43.67 69.25 44.87 Q 69.44 46.07 70.02 47.04 Q 70.6 48.02 71.38 49.11 Q 72.16 50.19 72.91 51.99 Q 73.34 53.27 73.47 54.43 Q 73.59 55.59 73.73 56.68 Q 73.87 57.77 74.21 58.82 Q 74.55 59.87 75.52 60.77 Q 76.55 61.74 78.18 62.01 Q 79.8 62.27 81.25 62.61 Q 82.71 62.94 83.55 63.77 Q 84.39 64.59 83.89 66.62 Q 83.78 67.07 83.58 67.71 Q 83.38 68.34 83.08 68.98 Q 82.77 69.62 82.21 70.03 Q 81.66 70.44 80.91 70.44 L 63.36 70.44 Q 62.91 70.44 62.8 69.99 Q 62.69 69.54 62.74 69.02 Q 62.8 68.49 62.96 68.01 Q 63.11 67.52 63.15 67.37 Q 63.4 66.39 64 65.79 Q 64.59 65.19 65.28 64.71 Q 65.96 64.22 66.54 63.69 Q 67.12 63.17 67.33 62.34 Q 67.55 61.44 67.42 59.12 Q 67.29 56.79 66.89 54.32 Q 66.5 51.84 65.92 49.97 Q 65.33 48.09 64.66 48.09 Q 63.61 48.09 62.25 49.63 Q 60.89 51.17 59.65 53.16 Q 58.4 55.14 57.47 57.06 Q 56.55 58.97 56.34 59.79 Q 56.08 60.84 56.19 61.74 Q 56.31 62.64 56.47 63.51 Q 56.63 64.37 56.74 65.27 Q 56.85 66.17 56.61 67.14 Q 56.5 67.59 56.32 68.16 Q 56.14 68.72 55.78 69.24 Q 55.43 69.77 54.93 70.11 Q 54.44 70.44 53.69 70.44 L 35.31 70.44 Q 34.86 70.44 34.76 69.96 Q 34.65 69.47 34.69 68.87 Q 34.73 68.27 34.87 67.71 Q 35.01 67.14 35.06 66.92 Z" style="fill: rgb(255, 255, 255); stroke: rgb(0, 0, 0);"/>
  </g>
  <path d="M 84.59 70.26 L 87.69 53.08 Q 87.71 52.99 87.81 52.99 L 91.44 52.99 Q 91.54 52.99 91.56 53.08 L 94.54 70.26 Q 94.55 70.38 94.44 70.38 L 91.67 70.38 Q 91.55 70.38 91.54 70.26 L 91.27 68.43 L 87.86 68.43 L 87.59 70.26 Q 87.58 70.38 87.47 70.38 L 84.69 70.38 Q 84.59 70.38 84.59 70.26 Z M 89.74 58.74 L 89.59 57.81 L 89.48 58.74 L 88.36 65.76 L 90.77 65.76 Z M 103.99 70.38 L 101.15 70.38 Q 101.06 70.38 101.06 70.26 L 101.11 53.11 Q 101.11 52.99 101.2 52.99 L 104.01 52.99 Q 104.11 52.99 104.11 53.11 L 104.11 59.03 L 108.03 53.08 Q 108.12 52.99 108.21 52.99 L 111.08 52.99 Q 111.19 52.99 111.13 53.08 L 106.81 59.98 L 111.65 70.28 Q 111.71 70.38 111.53 70.38 L 108.48 70.38 Q 108.36 70.38 108.33 70.28 L 104.95 62.94 L 104.08 64.3 L 104.08 70.26 Q 104.08 70.38 103.99 70.38 Z M 125.92 70.38 L 123.1 70.38 Q 122.99 70.38 122.99 70.26 L 122.99 56 L 119.75 56 Q 119.62 56 119.62 55.88 L 119.65 53.08 Q 119.65 52.99 119.75 52.99 L 129.24 52.99 Q 129.38 52.99 129.38 53.08 L 129.38 55.88 Q 129.38 56 129.28 56 L 126 56 L 126.02 70.26 Q 126.02 70.38 125.92 70.38 Z M 143.07 70.38 L 140.24 70.38 Q 140.12 70.38 140.12 70.26 L 140.14 53.08 Q 140.14 52.99 140.24 52.99 L 143.05 52.99 Q 143.15 52.99 143.15 53.08 L 143.17 70.26 Q 143.17 70.38 143.07 70.38 Z M 157.67 70.38 L 154.65 70.38 Q 154.54 70.38 154.52 70.26 L 151.07 53.08 Q 151.04 52.99 151.17 52.99 L 154 52.99 Q 154.1 52.99 154.12 53.08 L 156.17 64.53 L 158.17 53.08 Q 158.2 52.99 158.3 52.99 L 161.09 52.99 Q 161.23 52.99 161.19 53.08 L 157.8 70.26 Q 157.78 70.38 157.67 70.38 Z M 174.32 70.38 L 171.49 70.38 Q 171.37 70.38 171.37 70.26 L 171.39 53.08 Q 171.39 52.99 171.49 52.99 L 174.3 52.99 Q 174.4 52.99 174.4 53.08 L 174.42 70.26 Q 174.42 70.38 174.32 70.38 Z M 188.42 70.38 L 185.6 70.38 Q 185.49 70.38 185.49 70.26 L 185.49 56 L 182.25 56 Q 182.12 56 182.12 55.88 L 182.15 53.08 Q 182.15 52.99 182.25 52.99 L 191.74 52.99 Q 191.88 52.99 191.88 53.08 L 191.88 55.88 Q 191.88 56 191.78 56 L 188.5 56 L 188.52 70.26 Q 188.52 70.38 188.42 70.38 Z M 203.93 70.38 L 201.06 70.38 Q 200.97 70.38 200.97 70.28 L 201 63.18 L 197.65 53.08 Q 197.63 52.99 197.72 52.99 L 200.51 52.99 Q 200.63 52.99 200.65 53.08 L 202.5 59.81 L 204.38 53.08 Q 204.4 52.99 204.5 52.99 L 207.31 52.99 Q 207.4 52.99 207.38 53.08 L 204 63.08 L 204.02 70.28 Q 204.02 70.38 203.93 70.38 Z"/>
</svg>